<?xml version="1.0" standalone="no"?><!DOCTYPE svg PUBLIC "-//W3C//DTD SVG 1.1//EN" "http://www.w3.org/Graphics/SVG/1.1/DTD/svg11.dtd"><svg class="icon" width="200px" height="200.00px" viewBox="0 0 1024 1024" version="1.1" xmlns="http://www.w3.org/2000/svg"><path fill="#ffffff" d="M243.84 226.56a18.56 18.56 0 0 1 18.56-18.56h428.48a18.24 18.24 0 0 1 18.24 18.56v428.48a18.24 18.24 0 0 1-18.24 18.24H262.4a18.56 18.56 0 0 1-18.56-18.24V226.56z m579.84 214.08a18.56 18.56 0 0 1 18.56 18.56v310.4a37.12 37.12 0 0 1-36.8 36.8h-310.4a18.56 18.56 0 0 1-18.56-18.56v-29.44a18.56 18.56 0 0 1 18.56-18.56h280.64v-280.64a18.56 18.56 0 0 1 18.56-18.56z" /></svg>