<?xml version="1.0" standalone="no"?><!DOCTYPE svg PUBLIC "-//W3C//DTD SVG 1.1//EN" "http://www.w3.org/Graphics/SVG/1.1/DTD/svg11.dtd"><svg class="icon" width="200px" height="200.00px" viewBox="0 0 1024 1024" version="1.1" xmlns="http://www.w3.org/2000/svg"><path fill="#ffffff" d="M865.6 576l-134.08 128a33.92 33.92 0 0 1-20.16 8.64h-2.24a7.68 7.68 0 0 1-8-7.68v-64h-192a30.08 30.08 0 0 1-32-29.12v-115.52a30.08 30.08 0 0 1 32-29.44h192v-64a8 8 0 0 1 8-7.68h1.92a32 32 0 0 1 20.48 8.64l134.08 128a29.76 29.76 0 0 1 0 41.92z m-372.48-128h110.72v-43.84a30.08 30.08 0 0 0-32-29.12h-192v-64a8 8 0 0 0-8-7.68h-2.24a32 32 0 0 0-20.16 8.96l-134.4 128a29.76 29.76 0 0 0 0 41.92l134.4 128a32 32 0 0 0 20.48 8.64h1.92a8 8 0 0 0 8-7.68v-64h80.64V480a30.08 30.08 0 0 1 32-29.44z" /></svg>