<?xml version="1.0" standalone="no"?><!DOCTYPE svg PUBLIC "-//W3C//DTD SVG 1.1//EN" "http://www.w3.org/Graphics/SVG/1.1/DTD/svg11.dtd"><svg class="icon" width="200px" height="200.00px" viewBox="0 0 1024 1024" version="1.1" xmlns="http://www.w3.org/2000/svg"><path fill="#ffffff" d="M832 502.72V768a41.6 41.6 0 0 1-41.28 41.6H210.56A41.6 41.6 0 0 1 169.28 768v-265.28a5.12 5.12 0 0 1 5.12-5.12h248a5.12 5.12 0 0 1 5.12 5.12v25.6a41.6 41.6 0 0 0 41.6 41.6h61.76a41.6 41.6 0 0 0 41.6-41.6v-25.6a5.12 5.12 0 0 1 5.12-5.12h248a5.12 5.12 0 0 1 6.4 5.12zM748.16 291.2h-98.24a5.12 5.12 0 0 1-5.12-5.12v-16a62.08 62.08 0 0 0-62.08-62.08H416a62.08 62.08 0 0 0-60.8 62.08v16a5.12 5.12 0 0 1-5.12 5.12H251.84a82.88 82.88 0 0 0-82.56 82.88v76.8a5.12 5.12 0 0 0 5.12 5.12H825.6a5.12 5.12 0 0 0 5.12-5.12v-76.8a82.56 82.56 0 0 0-82.56-82.88z m-352-21.12a20.48 20.48 0 0 1 19.84-20.8h165.44a20.8 20.8 0 0 1 20.8 20.8v15.36a5.44 5.44 0 0 1-5.44 5.12h-194.88a5.12 5.12 0 0 1-5.12-5.12z" /></svg>