<?xml version="1.0" standalone="no"?><!DOCTYPE svg PUBLIC "-//W3C//DTD SVG 1.1//EN" "http://www.w3.org/Graphics/SVG/1.1/DTD/svg11.dtd"><svg class="icon" width="200px" height="200.00px" viewBox="0 0 1024 1024" version="1.1" xmlns="http://www.w3.org/2000/svg"><path fill="#ffffff" d="M388.8 777.6a12.8 12.8 0 0 1-3.52 10.24 14.4 14.4 0 0 1-10.56 3.84H271.04a14.4 14.4 0 0 1-10.56-3.84 13.12 13.12 0 0 1-4.48-10.24V438.4a15.04 15.04 0 0 1 3.84-10.88 13.44 13.44 0 0 1 10.56-4.16h103.68a13.44 13.44 0 0 1 10.56 4.16 15.04 15.04 0 0 1 3.52 10.88z m443.2 0a13.12 13.12 0 0 1-14.08 14.08h-104a13.12 13.12 0 0 1-9.92-3.84 12.16 12.16 0 0 1-4.16-10.24v-192A13.44 13.44 0 0 1 704 576a13.12 13.12 0 0 1 9.92-3.84h104a13.12 13.12 0 0 1 10.24 3.84 14.4 14.4 0 0 1 3.84 10.24z m-221.12 0a13.12 13.12 0 0 1-4.16 10.24 15.04 15.04 0 0 1-10.88 3.84H492.8a13.76 13.76 0 0 1-14.72-14.08V230.4a15.68 15.68 0 0 1 4.16-9.92 13.44 13.44 0 0 1 10.56-4.16h103.04a14.4 14.4 0 0 1 15.04 14.08v547.2z" /></svg>