<?xml version="1.0" standalone="no"?><!DOCTYPE svg PUBLIC "-//W3C//DTD SVG 1.1//EN" "http://www.w3.org/Graphics/SVG/1.1/DTD/svg11.dtd"><svg class="icon" width="200px" height="200.00px" viewBox="0 0 1024 1024" version="1.1" xmlns="http://www.w3.org/2000/svg"><path fill="#ffffff" d="M800.00000001 544a24 24 0 0 1-23.68 24.64h-84.8a214.4 214.4 0 0 1-25.92 109.76l78.4 79.68a22.08 22.08 0 0 1 7.04 16.96 22.72 22.72 0 0 1-7.04 16.96 22.08 22.08 0 0 1-16.96 7.04 22.72 22.72 0 0 1-16.96-7.04l-74.56-75.2a40.32 40.32 0 0 1-5.76 4.48 167.04 167.04 0 0 1-16 10.88q-14.4 9.28-24.96 14.4a178.88 178.88 0 0 1-32 10.88 149.76 149.76 0 0 1-36.48 4.48V422.08h-48v339.84a161.92 161.92 0 0 1-37.76-5.12 181.44 181.44 0 0 1-33.6-12.16l-24.96-15.04a130.88 130.88 0 0 1-16.64-12.16l-5.76-5.76-69.44 78.4a23.04 23.04 0 0 1-17.92 8.32 21.76 21.76 0 0 1-16-6.4 23.04 23.04 0 0 1-7.68-16.64 21.44 21.44 0 0 1 5.76-17.92L324.80000001 672a227.52 227.52 0 0 1-22.72-104H217.28000001a23.68 23.68 0 0 1-16.64-7.04 24.32 24.32 0 0 1 0-34.24 22.4 22.4 0 0 1 16.64-7.04h84.8v-111.68l-64-65.6a22.4 22.4 0 0 1-8-16.96 21.76 21.76 0 0 1 7.68-16.96 24.32 24.32 0 0 1 34.24 0l64 64h320l65.6-64a23.36 23.36 0 0 1 16.96-7.04 22.08 22.08 0 0 1 16.96 7.04 22.4 22.4 0 0 1 7.36 16.96 23.04 23.04 0 0 1-7.36 16.96l-64 65.6v111.04h84.8a22.4 22.4 0 0 1 16.64 7.04 24.32 24.32 0 0 1 7.04 17.92z m-181.76-218.24h-242.88a115.84 115.84 0 0 1 35.84-85.76 120 120 0 0 1 171.52 0 114.56 114.56 0 0 1 35.52 85.12z" /></svg>