<?xml version="1.0" standalone="no"?><!DOCTYPE svg PUBLIC "-//W3C//DTD SVG 1.1//EN" "http://www.w3.org/Graphics/SVG/1.1/DTD/svg11.dtd"><svg class="icon" width="200px" height="200.00px" viewBox="0 0 1024 1024" version="1.1" xmlns="http://www.w3.org/2000/svg"><path fill="#ffffff" d="M788.8 232.96H297.28a75.2 75.2 0 0 0-75.2 74.88v33.6a96 96 0 0 0 96 96h20.48v43.84a194.56 194.56 0 0 0 163.52 192V736h-90.56a32 32 0 0 0 0 64h248.64a32 32 0 1 0 0-64h-91.52v-64a194.56 194.56 0 0 0 163.84-192v-42.24H768a96 96 0 0 0 96-96V307.84a75.2 75.2 0 0 0-75.2-74.88zM320 372.8a32 32 0 0 1-32-32V307.84a9.6 9.6 0 0 1 9.6-9.6h22.4z m354.24-4.48l-114.88 124.16-32 32-3.52 3.84a11.2 11.2 0 0 1-16.32 0l-39.68-36.48-46.72-42.56a2.56 2.56 0 0 1 0-3.52 64 64 0 0 1 90.88-1.28l2.24 2.24 75.2-80.96a61.12 61.12 0 0 1 86.08-3.52 4.16 4.16 0 0 1-0.32 6.08z m125.76-26.88a32 32 0 0 1-32 32h-3.2V298.24h24a9.92 9.92 0 0 1 9.6 9.6z" /></svg>