<?xml version="1.0" standalone="no"?><!DOCTYPE svg PUBLIC "-//W3C//DTD SVG 1.1//EN" "http://www.w3.org/Graphics/SVG/1.1/DTD/svg11.dtd"><svg class="icon" width="200px" height="200.00px" viewBox="0 0 1024 1024" version="1.1" xmlns="http://www.w3.org/2000/svg"><path fill="#ffffff" d="M650.24 711.68a19.84 19.84 0 0 1-39.36 0v-297.92a18.56 18.56 0 0 1 19.52-17.6 18.88 18.88 0 0 1 19.84 17.6z m-118.08 0a18.56 18.56 0 0 1-19.52 17.28 18.56 18.56 0 0 1-19.52-17.28v-297.92a19.52 19.52 0 0 1 39.04 0z m-117.76 0a18.56 18.56 0 0 1-19.52 17.28 18.88 18.88 0 0 1-19.84-17.28v-297.92a19.84 19.84 0 0 1 39.36 0zM738.56 288h-128l-10.24-40.96a52.8 52.8 0 0 0-48.32-39.04h-78.72a53.12 53.12 0 0 0-48.96 39.04L416 288H288a29.76 29.76 0 0 0-32 30.08 29.44 29.44 0 0 0 29.12 30.08h29.76V768a39.36 39.36 0 0 0 39.04 40h314.88A39.68 39.68 0 0 0 709.12 768V348.16h29.44a30.08 30.08 0 0 0 0-60.16" /></svg>