<?xml version="1.0" standalone="no"?><!DOCTYPE svg PUBLIC "-//W3C//DTD SVG 1.1//EN" "http://www.w3.org/Graphics/SVG/1.1/DTD/svg11.dtd"><svg class="icon" width="200px" height="200.00px" viewBox="0 0 1024 1024" version="1.1" xmlns="http://www.w3.org/2000/svg"><path fill="#D6EAFF" d="M149.236909 776.889869h126.828795v-343.741594H149.236909v343.741594M149.236909 859.297542a41.486054 41.486054 0 0 0 41.203836 43.066475h44.308235a41.542498 41.542498 0 0 0 41.203837-43.066475v-39.510528H149.236909v39.510528M234.74898 302.311983h-44.308235a41.486054 41.486054 0 0 0-41.203836 43.066476v44.364678l126.828795-1.41109v-43.066475a41.598942 41.598942 0 0 0-41.316724-42.953589M321.728586 859.297542c0 23.76276 15.691324 43.066476 39.510528 43.066475h88.729357a43.122919 43.122919 0 0 0 43.066476-43.066475v-39.002536H321.728586v39.002536M321.785029 775.140117l171.13703 0.507992V345.773564H321.785029v429.366553M449.855584 214.090618H361.239114c-23.76276 0-39.510528 19.247272-39.510528 43.066476v44.816228l171.193473 1.354646v-46.170874a42.897145 42.897145 0 0 0-42.953588-43.066476M708.028663 302.819976h-129.820307a43.066476 43.066476 0 0 0-43.066475 43.066475v514.878625a43.010032 43.010032 0 0 0 43.066475 43.066475h129.820307a43.066476 43.066476 0 0 0 43.066475-43.066475V345.773564a43.066476 43.066476 0 0 0-43.066475-42.953588M794.443832 732.073641l85.624959-1.749752v-125.135486l-85.624959 0.507992v126.377246M794.443832 862.514827c0 23.76276 14.788226 41.203836 38.60743 41.203837h6.71679c23.76276 0 40.300739-19.303715 40.300739-43.066476v-85.173409l-85.624959 1.749751v85.286297M839.768052 430.551869h-6.71679c-23.819204 0-38.60743 21.053467-38.60743 44.816227v84.665417h85.624959V473.505457c0-23.76276-16.481535-42.953588-40.300739-42.953588z" /></svg>