<?xml version="1.0" standalone="no"?><!DOCTYPE svg PUBLIC "-//W3C//DTD SVG 1.1//EN" "http://www.w3.org/Graphics/SVG/1.1/DTD/svg11.dtd"><svg class="icon" width="200px" height="200.00px" viewBox="0 0 1024 1024" version="1.1" xmlns="http://www.w3.org/2000/svg"><path fill="#D6EAFF" d="M524.586925 148.108037A376.81755 376.81755 0 1 1 147.769375 524.925587a376.873994 376.873994 0 0 1 376.81755-376.81755z m0 67.732333a307.787014 307.787014 0 0 0-221.14607 521.821189 222.782935 222.782935 0 0 1 96.292802-155.897255l9.143865-5.644361a213.695513 213.695513 0 0 1 26.472054-13.715798l9.200308-3.781722 5.644361-2.03197-5.023481-4.233271a118.531584 118.531584 0 0 1-38.550987-73.376695l-0.79021-7.845662v-7.337669A119.09602 119.09602 0 0 1 524.925587 344.588248a119.039577 119.039577 0 0 1 119.208908 118.983133 118.531584 118.531584 0 0 1-33.866167 83.310771l-5.644362 5.305699-5.023481 4.176828 4.289715 1.580421c6.378128 2.427075 12.586925 5.136369 18.795722 8.12788l9.200309 4.797707 9.143865 5.305699 0.451549 0.338662a223.17804 223.17804 0 0 1 104.477125 161.146511 307.787014 307.787014 0 0 0-7.168339-435.180245c-57.403153-55.540514-109.782824-86.5845-213.977731-86.5845z" /></svg>