<?xml version="1.0" standalone="no"?><!DOCTYPE svg PUBLIC "-//W3C//DTD SVG 1.1//EN" "http://www.w3.org/Graphics/SVG/1.1/DTD/svg11.dtd"><svg class="icon" width="200px" height="200.00px" viewBox="0 0 1024 1024" version="1.1" xmlns="http://www.w3.org/2000/svg"><path fill="#D6EAFF" d="M443.251681 718.075626h419.037372a38.155881 38.155881 0 0 1 34.487047 21.900121 95.220373 95.220373 0 0 0 0 146.75339 38.042994 38.042994 0 0 1-34.487047 21.900121H195.633557a57.120935 57.120935 0 0 1-57.120934-57.120935v-76.198875a57.177378 57.177378 0 0 1 57.120934-57.177379h57.177379v152.397751l95.220373-95.220372 95.220372 95.220372z m0-247.618124h419.037372a38.155881 38.155881 0 0 1 34.487047 21.900121 95.220373 95.220373 0 0 0 0 146.75339 38.042994 38.042994 0 0 1-34.487047 21.900121H443.251681z m-190.440745 0v190.497189H195.633557A57.120935 57.120935 0 0 1 138.512623 603.946643V527.63488a57.177378 57.177378 0 0 1 57.120934-57.177378z m0-57.120935H195.633557a57.120935 57.120935 0 0 1-57.120934-57.120935v-76.198875a57.177378 57.177378 0 0 1 57.120934-57.177379h666.655496a38.155881 38.155881 0 0 1 34.487047 21.900122 95.220373 95.220373 0 0 0 0 146.753389 38.042994 38.042994 0 0 1-34.487047 21.900122H443.251681V318.116194a57.177378 57.177378 0 0 0-57.120935-57.177378h-76.198875a57.177378 57.177378 0 0 0-57.120935 57.177378z m152.397751-95.220373v460.41054L348.031309 721.349355l-57.177379 57.177379V318.116194A19.077941 19.077941 0 0 1 309.931871 299.151141h76.198875a19.021497 19.021497 0 0 1 19.021497 19.077941z" /></svg>