<?xml version="1.0" standalone="no"?><!DOCTYPE svg PUBLIC "-//W3C//DTD SVG 1.1//EN" "http://www.w3.org/Graphics/SVG/1.1/DTD/svg11.dtd"><svg class="icon" width="200px" height="200.00px" viewBox="0 0 1024 1024" version="1.1" xmlns="http://www.w3.org/2000/svg"><path fill="#D6EAFF" d="M623.476133 427.786132a90.309778 90.309778 0 0 0-179.716459 0 79.754823 79.754823 0 0 0-0.395106 8.240767 90.309778 90.309778 0 0 0 51.589461 81.561019h77.327748a90.309778 90.309778 0 0 0 51.589461-81.561019 79.021056 79.021056 0 0 0-0.395105-8.240767zM533.617903 507.992504A71.909161 71.909161 0 0 1 461.708742 435.970455a66.603462 66.603462 0 0 1 0.507993-8.240767 71.852717 71.852717 0 0 1 142.802337 0 79.754823 79.754823 0 0 1 0.451549 8.240767A71.852717 71.852717 0 0 1 533.617903 507.992504z"  /><path fill="#D6EAFF" d="M724.961746 453.411531V530.569948h-73.376695v-20.884136a8.579429 8.579429 0 0 0-16.933083 0V530.569948H432.696726v-20.884136a8.579429 8.579429 0 0 0-16.933084 0V530.569948h-73.376695V453.411531a25.681843 25.681843 0 0 1 25.6254-25.625399h331.324a25.6254 25.6254 0 0 1 25.625399 25.625399z m-73.376695 94.373719h73.376695v150.478668c0 16.537978-11.288722 29.971558-25.625399 29.971558H367.843016c-14.110903 0-25.6254-13.43358-25.625399-29.971558V547.78525h73.376695V564.436115a8.579429 8.579429 0 0 0 16.933083 0v-16.650865h201.61658V564.436115a8.579429 8.579429 0 0 0 16.933084 0v-16.650865z"  /><path fill="#D6EAFF" d="M545.922611 148.108037a380.09128 380.09128 0 1 0 380.034836 380.09128 380.09128 380.09128 0 0 0-380.034836-380.09128z m0 682.008157a301.973322 301.973322 0 1 1 301.916877-301.916877 301.916878 301.916878 0 0 1-301.916877 301.916877z"  /></svg>