<?xml version="1.0" standalone="no"?><!DOCTYPE svg PUBLIC "-//W3C//DTD SVG 1.1//EN" "http://www.w3.org/Graphics/SVG/1.1/DTD/svg11.dtd"><svg class="icon" width="200px" height="200.00px" viewBox="0 0 1024 1024" version="1.1" xmlns="http://www.w3.org/2000/svg"><path fill="#D6EAFF" d="M550.60743 148.728916A380.599272 380.599272 0 1 0 931.31959 529.271745a380.542829 380.542829 0 0 0-380.71216-380.542829z m0 697.247933a316.705104 316.705104 0 1 1 316.648661-316.705104 316.648661 316.648661 0 0 1-316.648661 316.705104z"  /><path fill="#D6EAFF" d="M550.60743 275.896373a253.375372 253.375372 0 1 0 253.375372 253.375372 253.375372 253.375372 0 0 0-253.375372-253.375372z m40.187852 304.795502a65.192371 65.192371 0 0 1-93.809283-90.309778l1.636865-1.636865c25.343182-25.343182 183.046632-91.607981 184.288392-92.115974-0.507993 1.241759-66.772792 158.94521-92.115974 184.288392z"  /></svg>