<?xml version="1.0" standalone="no"?><!DOCTYPE svg PUBLIC "-//W3C//DTD SVG 1.1//EN" "http://www.w3.org/Graphics/SVG/1.1/DTD/svg11.dtd"><svg class="icon" width="200px" height="200.00px" viewBox="0 0 1024 1024" version="1.1" xmlns="http://www.w3.org/2000/svg"><path fill="#ffffff" d="M528 215.68a295.68 295.68 0 0 1 118.4 24 304 304 0 0 1 96 64 308.16 308.16 0 0 1 64 96 307.2 307.2 0 0 1 0 236.48 310.4 310.4 0 0 1-64 96 304 304 0 0 1-96 64 308.8 308.8 0 0 1-237.12 0 304.64 304.64 0 0 1-161.92-160 307.2 307.2 0 0 1 0-236.48 303.68 303.68 0 0 1 161.92-161.92 296 296 0 0 1 118.72-22.08z m173.76 345.92a40.64 40.64 0 0 0 30.4-12.8 41.6 41.6 0 0 0 12.48-30.4 40.96 40.96 0 0 0-12.48-30.4 41.6 41.6 0 0 0-30.4-12.48h-129.6v-128a43.84 43.84 0 0 0-43.2-43.2 40 40 0 0 0-32 12.8 41.6 41.6 0 0 0-12.48 32v128h-128a40.32 40.32 0 0 0-30.08 12.48 40.96 40.96 0 0 0-12.48 30.4 41.6 41.6 0 0 0 12.48 30.4 39.36 39.36 0 0 0 30.08 12.8h128v128a42.88 42.88 0 0 0 12.48 32 41.28 41.28 0 0 0 32 12.8 43.84 43.84 0 0 0 43.2-43.52v-128z" /></svg>