<?xml version="1.0" standalone="no"?><!DOCTYPE svg PUBLIC "-//W3C//DTD SVG 1.1//EN" "http://www.w3.org/Graphics/SVG/1.1/DTD/svg11.dtd"><svg class="icon" width="200px" height="200.00px" viewBox="0 0 1024 1024" version="1.1" xmlns="http://www.w3.org/2000/svg"><path fill="#ffffff" d="M275.84 559.36h-4.16a46.72 46.72 0 0 1 0-93.44h4.16a256 256 0 0 1 205.76-205.76V256A46.72 46.72 0 0 1 576 256v4.48a256 256 0 0 1 206.08 205.76h4.16a46.72 46.72 0 1 1 0 93.44h-4.16A257.92 257.92 0 0 1 576 765.44v4.16a46.72 46.72 0 1 1-93.44 0v-4.16a256 256 0 0 1-206.72-206.08z m252.48 93.44a140.16 140.16 0 1 0-139.84-140.8 140.16 140.16 0 0 0 139.84 140.8z m0-46.72a93.44 93.44 0 0 1 0-186.88 93.44 93.44 0 0 1 0 186.88z" /></svg>