<?xml version="1.0" standalone="no"?><!DOCTYPE svg PUBLIC "-//W3C//DTD SVG 1.1//EN" "http://www.w3.org/Graphics/SVG/1.1/DTD/svg11.dtd"><svg class="icon" width="200px" height="200.00px" viewBox="0 0 1024 1024" version="1.1" xmlns="http://www.w3.org/2000/svg"><path fill="#ffffff" d="M814.72 562.56a195.84 195.84 0 0 0-64-45.44A117.76 117.76 0 0 0 672 305.6a22.4 22.4 0 0 0-19.52 24 22.72 22.72 0 0 0 23.36 20.8A72.96 72.96 0 0 1 754.24 416a71.36 71.36 0 0 1-18.24 54.4 73.28 73.28 0 0 1-49.6 25.6 20.16 20.16 0 0 0-13.12 6.08 22.72 22.72 0 0 0-14.4 20.16 23.04 23.04 0 0 0 5.76 16 22.72 22.72 0 0 0 15.68 7.36 144.32 144.32 0 0 1 137.6 151.36 22.4 22.4 0 0 0 44.8 1.92 187.52 187.52 0 0 0-48-136.32z m-470.08-24.32a23.04 23.04 0 0 0 5.76-16 22.4 22.4 0 0 0-14.08-20.16 22.72 22.72 0 0 0-13.12-6.08A72.96 72.96 0 0 1 256 416a71.68 71.68 0 0 1 25.28-49.6 73.6 73.6 0 0 1 53.44-14.4 22.72 22.72 0 0 0 24.32-20.48 21.44 21.44 0 0 0-5.12-16.32 22.72 22.72 0 0 0-15.36-8 117.76 117.76 0 0 0-80 211.84 188.48 188.48 0 0 0-112 181.44 22.72 22.72 0 0 0 22.4 21.44 22.72 22.72 0 0 0 15.68-7.36 21.12 21.12 0 0 0 5.76-16 144.32 144.32 0 0 1 137.6-151.36 22.72 22.72 0 0 0 16.64-8.96zM593.28 523.2a153.28 153.28 0 1 0-176 0 250.88 250.88 0 0 0-163.2 234.88 22.72 22.72 0 0 0 22.4 22.4h457.28a22.72 22.72 0 0 0 22.4-22.72 250.88 250.88 0 0 0-162.88-234.56z" /></svg>