<?xml version="1.0" encoding="UTF-8"?>
<svg width="1024px" height="1024px" viewBox="0 0 1024 1024" version="1.1" xmlns="http://www.w3.org/2000/svg" xmlns:xlink="http://www.w3.org/1999/xlink">
    <title>ercengjiaohuanji</title>
    <g id="页面-1" stroke="none" stroke-width="1" fill="none" fill-rule="evenodd">
        <g id="ercengjiaohuanji">
            <rect id="矩形" fill="#D8D8D8" opacity="0" x="0" y="0" width="1024" height="1024"></rect>
            <path d="M939,215 C950.046,215 959,223.954 959,235 L959,235 L959,749 C959,760.046 950.046,769 939,769 L939,769 L85,769 C73.9543,769 65,760.046 65,749 L65,749 L65,235 C65,223.954 73.9543,215 85,215 L85,215 Z M603,520 L554,520 L554,634 L603,634 L603,520 Z M726,520 L677,520 L677,634 L726,634 L726,520 Z M787,520 L738,520 L738,634 L787,634 L787,520 Z M848,520 L799,520 L799,634 L848,634 L848,520 Z M909,520 L860,520 L860,634 L909,634 L909,520 Z M664,520 L615,520 L615,634 L664,634 L664,520 Z M252.363,514.328 L198.954,586 L115,586 L115,634 L223.046,634 L230.244,624.341 L282.576,554.115 L252.363,514.328 Z M169,350 L115,402 L169,454 L169,426 L198.954,426 L346.756,624.341 L353.954,634 L462,634 L462,586 L378.046,586 L230.244,387.659 L223.046,378 L169,378 L169,350 Z M408,350 L408,378 L353.954,378 L346.756,387.659 L294.653,457.578 L324.866,497.365 L378.046,426 L408,426 L408,454 L462,402 L408,350 Z M603,350 L554,350 L554,464 L603,464 L603,350 Z M726,350 L677,350 L677,464 L726,464 L726,350 Z M787,350 L738,350 L738,464 L787,464 L787,350 Z M848,350 L799,350 L799,464 L848,464 L848,350 Z M909,350 L860,350 L860,464 L909,464 L909,350 Z M664,350 L615,350 L615,464 L664,464 L664,350 Z M125,780 C125,779.448 125.448,779 126,779 L247,779 C247.552,779 248,779.448 248,780 L248,808 C248,808.552 247.552,809 247,809 L126,809 C125.448,809 125,808.552 125,808 L125,780 Z M776,780 C776,779.448 776.448,779 777,779 L898,779 C898.552,779 899,779.448 899,780 L899,808 C899,808.552 898.552,809 898,809 L777,809 C776.448,809 776,808.552 776,808 L776,780 Z" id="形状结合" fill="#FFFFFF"></path>
        </g>
    </g>
</svg>