<?xml version="1.0" encoding="UTF-8"?>
<svg width="1024px" height="1024px" viewBox="0 0 1024 1024" version="1.1" xmlns="http://www.w3.org/2000/svg" xmlns:xlink="http://www.w3.org/1999/xlink">
    <title>fuwuqi</title>
    <g id="页面-1" stroke="none" stroke-width="1" fill="none" fill-rule="evenodd">
        <g id="fuwuqi">
            <rect id="矩形备份" fill="#D8D8D8" opacity="0" x="0" y="0" width="1024" height="1024"></rect>
            <path d="M951,218 C955.418,218 959,221.582 959,226 L959,366 C959,370.418 955.418,374 951,374 L74,374 C69.5817,374 66,370.418 66,366 L66,226 C66,221.582 69.5817,218 74,218 L951,218 Z M459.693,276 L357,276 L357,316 L459.693,316 L459.693,276 Z M607.796,276 L505.102,276 L505.102,316 L607.796,316 L607.796,276 Z M755.898,276 L653.204,276 L653.204,316 L755.898,316 L755.898,276 Z M904,276 L801.307,276 L801.307,316 L904,316 L904,276 Z M951,434 C955.418,434 959,437.582 959,442 L959,442 L959,582 C959,586.418 955.418,590 951,590 L951,590 L74,590 C69.5817,590 66,586.418 66,582 L66,582 L66,442 C66,437.582 69.5817,434 74,434 L74,434 Z M459.693,492 L357,492 L357,532 L459.693,532 L459.693,492 Z M607.796,492 L505.102,492 L505.102,532 L607.796,532 L607.796,492 Z M755.898,492 L653.204,492 L653.204,532 L755.898,532 L755.898,492 Z M904,492 L801.307,492 L801.307,532 L904,532 L904,492 Z M951,650 C955.418,650 959,653.582 959,658 L959,658 L959,798 C959,802.418 955.418,806 951,806 L951,806 L74,806 C69.5817,806 66,802.418 66,798 L66,798 L66,658 C66,653.582 69.5817,650 74,650 L74,650 Z M459.693,708 L357,708 L357,748 L459.693,748 L459.693,708 Z M607.796,708 L505.102,708 L505.102,748 L607.796,748 L607.796,708 Z M755.898,708 L653.204,708 L653.204,748 L755.898,748 L755.898,708 Z M904,708 L801.307,708 L801.307,748 L904,748 L904,708 Z" id="形状结合" fill="#FFFFFF"></path>
        </g>
    </g>
</svg>