<?xml version="1.0" encoding="UTF-8"?>
<svg width="1024px" height="1024px" viewBox="0 0 1024 1024" version="1.1" xmlns="http://www.w3.org/2000/svg" xmlns:xlink="http://www.w3.org/1999/xlink">
    <title>luyouqi</title>
    <g id="页面-1" stroke="none" stroke-width="1" fill="none" fill-rule="evenodd">
        <g id="luyouqi">
            <rect id="矩形" fill="#D8D8D8" opacity="0" x="0" y="0" width="1024" height="1024"></rect>
            <path d="M255,151.006299 C255,144.903299 249.054,140.569299 243.243,142.439299 L195.243,157.882299 C191.523,159.079299 189,162.541299 189,166.450299 L189,668.005299 L255,668.005299 L255,151.006299 Z M836,151.006299 C836,144.903299 830.054,140.569299 824.243,142.439299 L776.243,157.882299 C772.523,159.079299 770,162.541299 770,166.450299 L770,668.005299 L836,668.005299 L836,151.006299 Z M922,707.003299 L922,843.003299 C922,864.542299 904.539,882.003299 883,882.003299 L141,882.003299 C119.461,882.003299 102,864.542299 102,843.003299 L102,707.003299 L922,707.003299 Z M623,784.003299 C606.984,784.003299 594,796.987299 594,813.003299 C594,829.019299 606.984,842.003299 623,842.003299 C639.016,842.003299 652,829.019299 652,813.003299 C652,796.987299 639.016,784.003299 623,784.003299 Z M718.21,784.003299 C702.194,784.003299 689.21,796.987299 689.21,813.003299 C689.21,829.019299 702.194,842.003299 718.21,842.003299 C734.227,842.003299 747.21,829.019299 747.21,813.003299 C747.21,796.987299 734.227,784.003299 718.21,784.003299 Z M813.043,784.003299 C797.026,784.003299 784.043,796.987299 784.043,813.003299 C784.043,829.019299 797.026,842.003299 813.043,842.003299 C829.059,842.003299 842.043,829.019299 842.043,813.003299 C842.043,796.987299 829.059,784.003299 813.043,784.003299 Z" id="形状结合" fill="#FFFFFF"></path>
        </g>
    </g>
</svg>