<?xml version="1.0" encoding="UTF-8"?>
<svg width="1024px" height="1024px" viewBox="0 0 1024 1024" version="1.1" xmlns="http://www.w3.org/2000/svg" xmlns:xlink="http://www.w3.org/1999/xlink">
    <title>monihulianwang</title>
    <g id="页面-1" stroke="none" stroke-width="1" fill="none" fill-rule="evenodd">
        <g id="monihulianwang">
            <rect id="矩形" fill="#D8D8D8" opacity="0" x="0" y="0" width="1024" height="1024"></rect>
            <path d="M512,90 C745.064,90 934,278.936 934,512 C934,745.064 745.064,934 512,934 C278.95,934 90.0234,745.088 90,512.043 L90,512.043 L90,511.954 C90.0246,278.911 278.951,90 512,90 Z M608.275,707.1 C577.273,710.316 545.023,712 512,712 C478.977,712 446.727,710.316 415.725,707.1 C421.552,728.864 428.29,748.834 435.757,766.662 C449.017,798.32 463.787,821.337 478.143,835.835 C492.354,850.186 503.766,854 512,854 C520.234,854 531.646,850.186 545.857,835.835 C560.214,821.337 574.983,798.32 588.243,766.662 C595.71,748.834 602.448,728.864 608.275,707.1 Z M198.628,649.19 C233.08,727.774 296.226,790.92 374.81,825.372 C370.264,816.449 365.985,807.157 361.968,797.568 C349.115,766.879 338.423,731.87 330.272,693.728 C292.13,685.577 257.121,674.885 226.432,662.032 C216.843,658.015 207.551,653.736 198.628,649.19 Z M825.372,649.19 C816.449,653.736 807.157,658.015 797.568,662.032 C766.879,674.885 731.87,685.577 693.728,693.728 C685.577,731.87 674.885,766.879 662.032,797.568 C658.015,807.157 653.736,816.449 649.19,825.372 C727.774,790.92 790.92,727.774 825.372,649.19 Z M512,392 C472.419,392 434.586,394.632 399.411,399.411 C394.632,434.586 392,472.419 392,512 C392,551.581 394.632,589.414 399.411,624.589 C434.586,629.368 472.419,632 512,632 C551.581,632 589.414,629.368 624.589,624.589 C629.368,589.414 632,551.581 632,512 C632,472.419 629.368,434.586 624.589,399.411 C589.414,394.632 551.581,392 512,392 Z M707.1,415.725 C710.316,446.727 712,478.977 712,512 C712,545.023 710.316,577.273 707.1,608.275 C728.864,602.448 748.834,595.71 766.662,588.243 C798.32,574.983 821.337,560.214 835.835,545.857 C850.186,531.646 854,520.234 854,512 C854,503.766 850.186,492.354 835.835,478.143 C821.337,463.786 798.32,449.017 766.662,435.757 C748.834,428.29 728.864,421.552 707.1,415.725 Z M316.9,415.725 C295.136,421.552 275.166,428.29 257.338,435.757 C225.68,449.017 202.663,463.786 188.165,478.143 C173.827,492.342 170.006,503.747 170,511.979 L170,512 C170,520.234 173.814,531.646 188.165,545.857 C202.663,560.214 225.68,574.983 257.338,588.243 C275.166,595.71 295.136,602.448 316.9,608.275 C313.684,577.273 312,545.023 312,512 C312,478.977 313.684,446.727 316.9,415.725 Z M374.81,198.628 C296.226,233.08 233.08,296.226 198.628,374.81 C207.551,370.264 216.843,365.985 226.432,361.968 C257.121,349.115 292.13,338.423 330.272,330.272 C338.423,292.13 349.115,257.121 361.968,226.432 C365.985,216.843 370.264,207.551 374.81,198.628 Z M649.19,198.628 C653.736,207.551 658.015,216.843 662.032,226.432 C674.885,257.121 685.577,292.13 693.728,330.272 C731.87,338.423 766.879,349.115 797.568,361.968 C807.157,365.985 816.449,370.264 825.372,374.81 C790.92,296.226 727.774,233.08 649.19,198.628 Z M512,170 C503.766,170 492.354,173.814 478.143,188.165 C463.787,202.663 449.017,225.68 435.757,257.338 C428.29,275.166 421.552,295.136 415.725,316.9 C446.727,313.684 478.977,312 512,312 C545.023,312 577.273,313.684 608.275,316.9 C602.448,295.136 595.71,275.166 588.243,257.338 C574.983,225.68 560.214,202.663 545.857,188.165 C531.646,173.814 520.234,170 512,170 Z" id="形状结合" fill="#FFFFFF"></path>
        </g>
    </g>
</svg>