<?xml version="1.0" encoding="UTF-8"?>
<svg width="1024px" height="1024px" viewBox="0 0 1024 1024" version="1.1" xmlns="http://www.w3.org/2000/svg" xmlns:xlink="http://www.w3.org/1999/xlink">
    <title>PLC</title>
    <g id="页面-1" stroke="none" stroke-width="1" fill="none" fill-rule="evenodd">
        <g id="PLC">
            <rect id="矩形" fill="#D8D8D8" opacity="0" x="0" y="0" width="1024" height="1024"></rect>
            <path d="M247,779 C247.552,779 248,779.448 248,780 L248,780 L248,808 C248,808.552 247.552,809 247,809 L247,809 L126,809 C125.448,809 125,808.552 125,808 L125,808 L125,780 C125,779.448 125.448,779 126,779 L126,779 Z M898,779 C898.552,779 899,779.448 899,780 L899,780 L899,808 C899,808.552 898.552,809 898,809 L898,809 L777,809 C776.448,809 776,808.552 776,808 L776,808 L776,780 C776,779.448 776.448,779 777,779 L777,779 Z M939,215 C950.046,215 959,223.954 959,235 L959,749 C959,760.046 950.046,769 939,769 L85,769 C73.9543,769 65,760.046 65,749 L65,235 C65,223.954 73.9543,215 85,215 L939,215 Z M753.692,359 C674.636,359 614.881,415.415 614.881,490.388 C614.881,566.474 673.152,624.003 751.465,624.003 C789.694,624.003 830.891,605.074 858.728,576.495 L858.728,576.495 L820.128,535.669 C801.942,554.226 776.703,566.103 754.805,566.103 C713.607,566.103 682.43,533.071 682.43,489.646 C682.43,446.963 713.607,414.302 754.805,414.302 C777.817,414.302 803.055,427.292 820.128,448.077 L820.128,448.077 L858.357,402.796 C832.376,376.073 792.292,359 753.692,359 Z M285.202,361.227 L172,361.227 L172,621.034 L238.065,621.034 L238.065,547.917 L285.202,547.917 L287.186608,547.906432 C352.398757,547.209239 389.867,512.04831 389.867,451.788 C389.867,393.888 351.638,361.227 285.202,361.227 L285.202,361.227 Z M490.333,361.227 L424.268,361.227 L424.268,621.034 L600.565,621.034 L600.565,565.732 L490.333,565.732 L490.333,361.227 Z M281.861,413.188 C310.811,413.188 327.513,426.921 327.513,454.015 C327.513,481.48 310.811,495.955 281.861,495.955 L281.861,495.955 L238.065,495.955 L238.065,413.188 Z" id="形状结合" fill="#FFFFFF"></path>
        </g>
    </g>
</svg>