<?xml version="1.0" encoding="UTF-8"?>
<svg width="1024px" height="1024px" viewBox="0 0 1024 1024" version="1.1" xmlns="http://www.w3.org/2000/svg" xmlns:xlink="http://www.w3.org/1999/xlink">
    <title>taishiji</title>
    <g id="页面-1" stroke="none" stroke-width="1" fill="none" fill-rule="evenodd">
        <g id="taishiji" transform="translate(0.000000, 0.000000)">
            <rect id="矩形" fill="#D8D8D8" opacity="0" x="0" y="0" width="1024" height="1024"></rect>
            <path d="M951,232 C955.418,232 959,235.582 959,240 L959,240 L959,784 C959,788.418 955.418,792 951,792 L951,792 L709,792 C704.582,792 701,788.418 701,784 L701,784 L701,240 C701,235.582 704.582,232 709,232 L709,232 Z M830,654 C807.909,654 790,671.909 790,694 C790,716.091 807.909,734 830,734 C852.091,734 870,716.091 870,694 C870,671.909 852.091,654 830,654 Z M830,671 C842.703,671 853,681.297 853,694 C853,706.703 842.703,717 830,717 C817.297,717 807,706.703 807,694 C807,681.297 817.297,671 830,671 Z M923,309 L737,309 L737,334 L923,334 L923,309 Z M923,270 L737,270 L737,295 L923,295 L923,270 Z M661.857,282.909 C666.275,282.909 669.857,286.491 669.857,290.909 L669.857,290.909 L669.857,682.182 C669.857,686.6 666.275,690.182 661.857,690.182 L661.857,690.182 L427.599,690.182 L427.599,766 L564.143,766 C566.352,766 568.143,767.791 568.143,770 L568.143,770 L568.143,788 C568.143,790.209 566.352,792 564.143,792 L564.143,792 L170.714,792 C168.505,792 166.714,790.209 166.714,788 L166.714,788 L166.714,770 C166.714,767.791 168.505,766 170.714,766 L170.714,766 L306.375,766 L306.375,690.182 L73,690.182 C68.5817,690.182 65,686.6 65,682.182 L65,682.182 L65,290.909 C65,286.491 68.5817,282.909 73,282.909 L73,282.909 Z M644.428,308.364 L90.4285,308.364 L90.4285,664.727 L644.428,664.727 L644.428,308.364 Z M628.428,324.364 L628.428,648.727 L106.428,648.727 L106.428,324.364 L628.428,324.364 Z" id="形状结合" fill="#FFFFFF"></path>
        </g>
    </g>
</svg>