<svg width="1024" height="1024" viewBox="0 0 1024 1024" fill="none" xmlns="http://www.w3.org/2000/svg">
<path fill-rule="evenodd" clip-rule="evenodd" d="M113 257.083H133H153V153H257.083V133V113H153H133H113V133V153V257.083ZM367.917 113H656.083V133V153H367.917V133V113ZM766.917 133V113H871H891H911V133V153V257.083H891H871V153H766.917V133ZM891 367.917H911V656.083H891H871V367.917H891ZM891 766.917H911V871V891V911H891H871H766.917V891V871H871V766.917H891ZM656.083 891V911H367.917V891V871H656.083V891ZM257.083 891V911H153H133H113V891V871V766.917H133H153V871H257.083V891ZM133 656.083H113V367.917H133H153V656.083H133ZM297 357H471H551H726V437H551V726H471V437H297V357Z" fill="white"/>
</svg>
